<svg id="Capa_1" data-name="Capa 1" xmlns="http://www.w3.org/2000/svg" viewBox="0 0 23.99 8.5"><defs><style>.cls-1{fill:#df0a17;}.cls-2{fill:#fff;fill-rule:evenodd;}</style></defs><g id="Capa_2" data-name="Capa 2"><g id="Capa_1-2" data-name="Capa 1-2"><path class="cls-1" d="M6.84,7.63a4.17,4.17,0,0,1-2.59.87A4.26,4.26,0,1,1,7.57,6.91a8.41,8.41,0,0,1,.75,1.5V8.5H7.46L7.4,8.41A8.54,8.54,0,0,0,6.84,7.63ZM4.25,7.31A3,3,0,0,0,6,6.75,8.06,8.06,0,0,0,1.2,4.64,3.07,3.07,0,0,0,4.25,7.31Zm.51-5.86L6.68,2.64A8.52,8.52,0,0,1,4.46,4.07,7.84,7.84,0,0,1,6.82,5.91a3.05,3.05,0,1,0-5.6-2.05A8,8,0,0,0,4.76,1.45Z" transform="translate(-0.01 0)"/><path class="cls-2" d="M10.85,5.2a.94.94,0,1,1,.94.94h0A.94.94,0,0,1,10.85,5.2Zm.94,1.74A1.74,1.74,0,1,0,10.05,5.2h0a1.72,1.72,0,0,0,1.73,1.73Zm7.56,0H17.79V6.17H18l-.76-.76v.76h.2V7H15.86V6.17h.58V3.08h-.77V2.3h1.55V4.81l.58-.57h-.39V3.46h1.94v.78H19l-1,1,1,1h.39Zm-3.49-3.5v.79h-.21a.77.77,0,0,0-.76.76V6.17h.57v.77H13.54V6.17h.57V4.24h-.57V3.47h1.17l.21.22a1,1,0,0,1,.7-.27,1,1,0,0,1,.24,0Zm7.53,2.73H24v.76H22.06V6.17h.57V4.24h-.57V3.47h1.33Zm0-3.09h-.77V2.33h.77Zm-2.31,3.1h.59V7H19.73V6.17h.58V3.08h-.58V2.3h1.35Z" transform="translate(-0.01 0)"/></g></g></svg>