<svg xmlns="http://www.w3.org/2000/svg" viewBox="0 0 23.98 8.5"><defs><style>.cls-1{fill:#df0a17;}.cls-2{fill:#1d1d1c;fill-rule:evenodd;}</style></defs><g id="Capa_2" data-name="Capa 2"><g id="Capa_1-2" data-name="Capa 1"><path class="cls-1" d="M6.84,7.63a4.21,4.21,0,0,1-2.59.87A4.25,4.25,0,1,1,8.51,4.25a4.18,4.18,0,0,1-.94,2.66,8.08,8.08,0,0,1,.75,1.5l0,.09H7.46L7.4,8.41A7,7,0,0,0,6.84,7.63ZM4.25,7.31A3,3,0,0,0,6,6.75,8.09,8.09,0,0,0,1.2,4.64,3.07,3.07,0,0,0,4.25,7.31Zm.51-5.86L6.68,2.64A8.35,8.35,0,0,1,4.46,4.07,8,8,0,0,1,6.82,5.91a3,3,0,0,0,.49-1.66,3.06,3.06,0,0,0-6.09-.39A8.07,8.07,0,0,0,4.76,1.45Z"/><path class="cls-2" d="M10.85,5.2a.94.94,0,1,1,.94.94A.94.94,0,0,1,10.85,5.2Zm.94,1.74a1.74,1.74,0,1,0-1.74-1.73A1.73,1.73,0,0,0,11.79,6.94Zm7.56,0H17.79V6.17H18l-.76-.76v.76h.2V7H15.86V6.17h.58V3.08h-.77V2.3h1.55V4.81l.58-.57h-.39V3.46h1.94v.78H19l-1,1,1,1h.39Zm-3.49-3.5v.79l-.21,0a.77.77,0,0,0-.76.76V6.17h.57v.77H13.54V6.17h.57V4.24h-.57V3.47h1.17l.21.22a1,1,0,0,1,.7-.27A.93.93,0,0,1,15.86,3.45Zm7.53,2.73H24v.76H22.06V6.17h.57V4.24h-.57V3.47h1.33Zm0-3.09h-.77V2.33h.77ZM21.08,6.18h.59V7H19.73V6.17h.58V3.08h-.58V2.3h1.35Z"/></g></g></svg>